<svg id="visual" viewBox="0 0 960 540" width="960" height="540" xmlns="http://www.w3.org/2000/svg" xmlns:xlink="http://www.w3.org/1999/xlink" version="1.1"><rect x="0" y="0" width="960" height="540" fill="#E3F2ED"></rect><defs><linearGradient id="grad1_0" x1="43.8%" y1="0%" x2="100%" y2="100%"><stop offset="14.444444444444446%" stop-color="#7bb798" stop-opacity="1"></stop><stop offset="85.55555555555554%" stop-color="#7bb798" stop-opacity="1"></stop></linearGradient></defs><defs><linearGradient id="grad1_1" x1="43.8%" y1="0%" x2="100%" y2="100%"><stop offset="14.444444444444446%" stop-color="#7bb798" stop-opacity="1"></stop><stop offset="85.55555555555554%" stop-color="#89c0a5" stop-opacity="1"></stop></linearGradient></defs><defs><linearGradient id="grad1_2" x1="43.8%" y1="0%" x2="100%" y2="100%"><stop offset="14.444444444444446%" stop-color="#97c8b1" stop-opacity="1"></stop><stop offset="85.55555555555554%" stop-color="#89c0a5" stop-opacity="1"></stop></linearGradient></defs><defs><linearGradient id="grad1_3" x1="43.8%" y1="0%" x2="100%" y2="100%"><stop offset="14.444444444444446%" stop-color="#97c8b1" stop-opacity="1"></stop><stop offset="85.55555555555554%" stop-color="#a6d0be" stop-opacity="1"></stop></linearGradient></defs><defs><linearGradient id="grad1_4" x1="43.8%" y1="0%" x2="100%" y2="100%"><stop offset="14.444444444444446%" stop-color="#b4d9ca" stop-opacity="1"></stop><stop offset="85.55555555555554%" stop-color="#a6d0be" stop-opacity="1"></stop></linearGradient></defs><defs><linearGradient id="grad1_5" x1="43.8%" y1="0%" x2="100%" y2="100%"><stop offset="14.444444444444446%" stop-color="#b4d9ca" stop-opacity="1"></stop><stop offset="85.55555555555554%" stop-color="#c4e1d6" stop-opacity="1"></stop></linearGradient></defs><defs><linearGradient id="grad1_6" x1="43.8%" y1="0%" x2="100%" y2="100%"><stop offset="14.444444444444446%" stop-color="#d3eae2" stop-opacity="1"></stop><stop offset="85.55555555555554%" stop-color="#c4e1d6" stop-opacity="1"></stop></linearGradient></defs><defs><linearGradient id="grad1_7" x1="43.8%" y1="0%" x2="100%" y2="100%"><stop offset="14.444444444444446%" stop-color="#d3eae2" stop-opacity="1"></stop><stop offset="85.55555555555554%" stop-color="#e3f2ed" stop-opacity="1"></stop></linearGradient></defs><defs><linearGradient id="grad2_0" x1="0%" y1="0%" x2="56.3%" y2="100%"><stop offset="14.444444444444446%" stop-color="#7bb798" stop-opacity="1"></stop><stop offset="85.55555555555554%" stop-color="#7bb798" stop-opacity="1"></stop></linearGradient></defs><defs><linearGradient id="grad2_1" x1="0%" y1="0%" x2="56.3%" y2="100%"><stop offset="14.444444444444446%" stop-color="#89c0a5" stop-opacity="1"></stop><stop offset="85.55555555555554%" stop-color="#7bb798" stop-opacity="1"></stop></linearGradient></defs><defs><linearGradient id="grad2_2" x1="0%" y1="0%" x2="56.3%" y2="100%"><stop offset="14.444444444444446%" stop-color="#89c0a5" stop-opacity="1"></stop><stop offset="85.55555555555554%" stop-color="#97c8b1" stop-opacity="1"></stop></linearGradient></defs><defs><linearGradient id="grad2_3" x1="0%" y1="0%" x2="56.3%" y2="100%"><stop offset="14.444444444444446%" stop-color="#a6d0be" stop-opacity="1"></stop><stop offset="85.55555555555554%" stop-color="#97c8b1" stop-opacity="1"></stop></linearGradient></defs><defs><linearGradient id="grad2_4" x1="0%" y1="0%" x2="56.3%" y2="100%"><stop offset="14.444444444444446%" stop-color="#a6d0be" stop-opacity="1"></stop><stop offset="85.55555555555554%" stop-color="#b4d9ca" stop-opacity="1"></stop></linearGradient></defs><defs><linearGradient id="grad2_5" x1="0%" y1="0%" x2="56.3%" y2="100%"><stop offset="14.444444444444446%" stop-color="#c4e1d6" stop-opacity="1"></stop><stop offset="85.55555555555554%" stop-color="#b4d9ca" stop-opacity="1"></stop></linearGradient></defs><defs><linearGradient id="grad2_6" x1="0%" y1="0%" x2="56.3%" y2="100%"><stop offset="14.444444444444446%" stop-color="#c4e1d6" stop-opacity="1"></stop><stop offset="85.55555555555554%" stop-color="#d3eae2" stop-opacity="1"></stop></linearGradient></defs><defs><linearGradient id="grad2_7" x1="0%" y1="0%" x2="56.3%" y2="100%"><stop offset="14.444444444444446%" stop-color="#e3f2ed" stop-opacity="1"></stop><stop offset="85.55555555555554%" stop-color="#d3eae2" stop-opacity="1"></stop></linearGradient></defs><g transform="translate(960, 0)"><path d="M0 162C-14.4 143.2 -28.8 124.4 -49.4 119.2C-69.9 114 -96.7 122.3 -114.6 114.6C-132.4 106.8 -141.4 83 -147.8 61.2C-154.2 39.5 -158.1 19.7 -162 0L0 0Z" fill="#dbeee7"></path><path d="M0 141.8C-12.6 125.3 -25.2 108.9 -43.2 104.3C-61.2 99.7 -84.6 107 -100.2 100.2C-115.9 93.5 -123.7 72.6 -129.3 53.6C-135 34.5 -138.4 17.3 -141.7 0L0 0Z" fill="#cbe6dc"></path><path d="M0 121.5C-10.8 107.4 -21.6 93.3 -37 89.4C-52.5 85.5 -72.5 91.7 -85.9 85.9C-99.3 80.1 -106 62.3 -110.9 45.9C-115.7 29.6 -118.6 14.8 -121.5 0L0 0Z" fill="#bcddd0"></path><path d="M0 101.3C-9 89.5 -18 77.8 -30.9 74.5C-43.7 71.2 -60.4 76.4 -71.6 71.6C-82.8 66.8 -88.4 51.9 -92.4 38.3C-96.4 24.7 -98.8 12.3 -101.2 0L0 0Z" fill="#add5c4"></path><path d="M0 81C-7.2 71.6 -14.4 62.2 -24.7 59.6C-35 57 -48.3 61.1 -57.3 57.3C-66.2 53.4 -70.7 41.5 -73.9 30.6C-77.1 19.7 -79.1 9.9 -81 0L0 0Z" fill="#9eccb8"></path><path d="M0 60.8C-5.4 53.7 -10.8 46.7 -18.5 44.7C-26.2 42.7 -36.3 45.9 -43 43C-49.7 40.1 -53 31.1 -55.4 23C-57.8 14.8 -59.3 7.4 -60.7 0L0 0Z" fill="#90c4ab"></path><path d="M0 40.5C-3.6 35.8 -7.2 31.1 -12.3 29.8C-17.5 28.5 -24.2 30.6 -28.6 28.6C-33.1 26.7 -35.3 20.8 -37 15.3C-38.6 9.9 -39.5 4.9 -40.5 0L0 0Z" fill="#82bb9e"></path><path d="M0 20.3C-1.8 17.9 -3.6 15.6 -6.2 14.9C-8.7 14.2 -12.1 15.3 -14.3 14.3C-16.6 13.4 -17.7 10.4 -18.5 7.7C-19.3 4.9 -19.8 2.5 -20.2 0L0 0Z" fill="#7bb798"></path></g><g transform="translate(0, 540)"><path d="M0 -162C16.7 -148.4 33.4 -134.8 53.2 -128.4C73 -122.1 95.8 -123 113.1 -113.1C130.5 -103.3 142.4 -82.6 149.7 -62C156.9 -41.3 159.5 -20.7 162 0L0 0Z" fill="#dbeee7"></path><path d="M0 -141.7C14.6 -129.8 29.3 -117.9 46.5 -112.4C63.8 -106.8 83.8 -107.6 99 -99C114.2 -90.4 124.6 -72.3 131 -54.2C137.3 -36.2 139.5 -18.1 141.8 0L0 0Z" fill="#cbe6dc"></path><path d="M0 -121.5C12.5 -111.3 25.1 -101.1 39.9 -96.3C54.7 -91.6 71.8 -92.2 84.9 -84.9C97.9 -77.5 106.8 -62 112.3 -46.5C117.7 -31 119.6 -15.5 121.5 0L0 0Z" fill="#bcddd0"></path><path d="M0 -101.2C10.4 -92.7 20.9 -84.2 33.2 -80.3C45.6 -76.3 59.9 -76.9 70.7 -70.7C81.6 -64.6 89 -51.7 93.5 -38.7C98.1 -25.8 99.7 -12.9 101.3 0L0 0Z" fill="#add5c4"></path><path d="M0 -81C8.4 -74.2 16.7 -67.4 26.6 -64.2C36.5 -61 47.9 -61.5 56.6 -56.6C65.3 -51.6 71.2 -41.3 74.8 -31C78.5 -20.7 79.7 -10.3 81 0L0 0Z" fill="#9eccb8"></path><path d="M0 -60.7C6.3 -55.6 12.5 -50.5 19.9 -48.2C27.4 -45.8 35.9 -46.1 42.4 -42.4C48.9 -38.7 53.4 -31 56.1 -23.2C58.8 -15.5 59.8 -7.8 60.8 0L0 0Z" fill="#90c4ab"></path><path d="M0 -40.5C4.2 -37.1 8.4 -33.7 13.3 -32.1C18.2 -30.5 23.9 -30.7 28.3 -28.3C32.6 -25.8 35.6 -20.7 37.4 -15.5C39.2 -10.3 39.9 -5.2 40.5 0L0 0Z" fill="#82bb9e"></path><path d="M0 -20.2C2.1 -18.5 4.2 -16.8 6.6 -16.1C9.1 -15.3 12 -15.4 14.1 -14.1C16.3 -12.9 17.8 -10.3 18.7 -7.7C19.6 -5.2 19.9 -2.6 20.3 0L0 0Z" fill="#7bb798"></path></g></svg>